{"accessors":[{"bufferView":0,"byteOffset":0,"componentType":5126,"count":56,"max":[0.01,0.0045000000000000009,0.01],"min":[-0.01,0.0005,-0.01],"type":"VEC3"},{"bufferView":0,"byteOffset":672,"componentType":5126,"count":252,"max":[0.01,0.0005,0.01],"min":[-0.01,0.0,-0.01],"type":"VEC3"},{"bufferView":0,"byteOffset":3696,"componentType":5126,"count":23,"max":[5.81707229594993e-19,0.005,-0.0075],"min":[-1.1384579450539503e-16,0.0,-0.01],"type":"VEC3"},{"bufferView":0,"byteOffset":3972,"componentType":5126,"count":252,"max":[0.01,0.005,0.01],"min":[-0.01,0.0045000000000000009,-0.01],"type":"VEC3"},{"bufferView":0,"byteOffset":6996,"componentType":5126,"count":23,"max":[0.01,0.005,2.0790386970552594e-18],"min":[0.0075,0.0,0.0],"type":"VEC3"},{"bufferView":0,"byteOffset":7272,"componentType":5126,"count":56,"max":[0.0095,0.0,0.0095],"min":[-0.0095,0.0,-0.0095],"type":"VEC3"},{"bufferView":0,"byteOffset":7944,"componentType":5126,"count":56,"max":[0.0075000000000001,0.0036325030024025606,0.0075],"min":[-0.0075,0.0,-0.0075],"type":"VEC3"},{"bufferView":0,"byteOffset":8616,"componentType":5126,"count":60,"max":[0.00894427190999912,0.005,0.00894427190999916],"min":[-0.00894427190999916,0.0036325030024024,-0.00894427190999916],"type":"VEC3"},{"bufferView":0,"byteOffset":9336,"componentType":5126,"count":56,"max":[0.0095,0.005,0.0095],"min":[-0.0095,0.004999999999999979,-0.0095],"type":"VEC3"},{"bufferView":0,"byteOffset":10008,"componentType":5126,"count":608,"max":[0.011918329197227178,0.02495,0.01193796714516871],"min":[-0.011949999999999999,0.0010500000000000002,-0.01193796714516871],"type":"VEC3"},{"bufferView":0,"byteOffset":17304,"componentType":5126,"count":88,"max":[0.00866683085328061,0.023913601509815,0.0003792735557089048],"min":[0.00479295017262215,0.021056450160728599,-0.0001894607131660242],"type":"VEC3"},{"bufferView":0,"byteOffset":18360,"componentType":5126,"count":435,"max":[0.010457607314751502,0.024626368737649234,0.0],"min":[-0.0003689715578736806,0.015719903215016,-0.010534093345742948],"type":"VEC3"},{"bufferView":0,"byteOffset":23580,"componentType":5126,"count":91,"max":[0.010536228364370255,0.02123183636137898,2.1227613326443203e-18],"min":[0.008407747282432241,0.017025073803590603,-0.004184215787760906],"type":"VEC3"},{"bufferView":0,"byteOffset":24672,"componentType":5126,"count":80,"max":[0.010186684212779775,0.024298491641876014,0.0021406512844188787],"min":[-0.0021442431868910459,0.01307379730888855,-0.010173026147240633],"type":"VEC3"},{"bufferView":0,"byteOffset":25632,"componentType":5126,"count":11,"max":[0.00824618561456671,0.015857587247242,1.97039866892149e-18],"min":[0.00804476307084362,0.014187722708732,-0.00217295924749309],"type":"VEC3"},{"bufferView":0,"byteOffset":25764,"componentType":5126,"count":122,"max":[0.008172959247493089,0.021557292288533124,0.002262273503831477],"min":[-0.002264379301719895,0.012933664218533439,-0.008236906248097535],"type":"VEC3"},{"bufferView":0,"byteOffset":27228,"componentType":5126,"count":411,"max":[0.008498827193966255,0.021499593402967373,0.008449292518756129],"min":[-0.008457955974808239,0.0045000000000000009,-0.008449292518756129],"type":"VEC3"},{"bufferView":1,"byteOffset":0,"componentType":5126,"count":56,"type":"VEC3"},{"bufferView":1,"byteOffset":672,"componentType":5126,"count":252,"type":"VEC3"},{"bufferView":1,"byteOffset":3696,"componentType":5126,"count":23,"type":"VEC3"},{"bufferView":1,"byteOffset":3972,"componentType":5126,"count":252,"type":"VEC3"},{"bufferView":1,"byteOffset":6996,"componentType":5126,"count":23,"type":"VEC3"},{"bufferView":1,"byteOffset":7272,"componentType":5126,"count":56,"type":"VEC3"},{"bufferView":1,"byteOffset":7944,"componentType":5126,"count":56,"type":"VEC3"},{"bufferView":1,"byteOffset":8616,"componentType":5126,"count":60,"type":"VEC3"},{"bufferView":1,"byteOffset":9336,"componentType":5126,"count":56,"type":"VEC3"},{"bufferView":1,"byteOffset":10008,"componentType":5126,"count":608,"type":"VEC3"},{"bufferView":1,"byteOffset":17304,"componentType":5126,"count":88,"type":"VEC3"},{"bufferView":1,"byteOffset":18360,"componentType":5126,"count":435,"type":"VEC3"},{"bufferView":1,"byteOffset":23580,"componentType":5126,"count":91,"type":"VEC3"},{"bufferView":1,"byteOffset":24672,"componentType":5126,"count":80,"type":"VEC3"},{"bufferView":1,"byteOffset":25632,"componentType":5126,"count":11,"type":"VEC3"},{"bufferView":1,"byteOffset":25764,"componentType":5126,"count":122,"type":"VEC3"},{"bufferView":1,"byteOffset":27228,"componentType":5126,"count":411,"type":"VEC3"},{"bufferView":2,"byteOffset":0,"componentType":5123,"count":162,"type":"SCALAR"},{"bufferView":2,"byteOffset":324,"componentType":5123,"count":1296,"type":"SCALAR"},{"bufferView":2,"byteOffset":2916,"componentType":5123,"count":63,"type":"SCALAR"},{"bufferView":2,"byteOffset":3044,"componentType":5123,"count":1296,"type":"SCALAR"},{"bufferView":2,"byteOffset":5636,"componentType":5123,"count":63,"type":"SCALAR"},{"bufferView":2,"byteOffset":5764,"componentType":5123,"count":162,"type":"SCALAR"},{"bufferView":2,"byteOffset":6088,"componentType":5123,"count":162,"type":"SCALAR"},{"bufferView":2,"byteOffset":6412,"componentType":5123,"count":174,"type":"SCALAR"},{"bufferView":2,"byteOffset":6760,"componentType":5123,"count":162,"type":"SCALAR"},{"bufferView":2,"byteOffset":7084,"componentType":5123,"count":3414,"type":"SCALAR"},{"bufferView":2,"byteOffset":13912,"componentType":5123,"count":468,"type":"SCALAR"},{"bufferView":2,"byteOffset":14848,"componentType":5123,"count":2409,"type":"SCALAR"},{"bufferView":2,"byteOffset":19668,"componentType":5123,"count":480,"type":"SCALAR"},{"bufferView":2,"byteOffset":20628,"componentType":5123,"count":234,"type":"SCALAR"},{"bufferView":2,"byteOffset":21096,"componentType":5123,"count":36,"type":"SCALAR"},{"bufferView":2,"byteOffset":21168,"componentType":5123,"count":486,"type":"SCALAR"},{"bufferView":2,"byteOffset":22140,"componentType":5123,"count":2256,"type":"SCALAR"}],"asset":{"generator":"Open CASCADE Technology 7.7 [dev.opencascade.org]","version":"2.0"},"bufferViews":[{"buffer":0,"byteLength":32160,"byteOffset":0,"byteStride":12,"target":34962},{"buffer":0,"byteLength":32160,"byteOffset":32160,"byteStride":12,"target":34962},{"buffer":0,"byteLength":26652,"byteOffset":64320,"target":34963}],"buffers":[{"byteLength":90972,"uri":"Ball.bin"}],"meshes":[{"name":"Solid","primitives":[{"attributes":{"NORMAL":17,"POSITION":0},"indices":34,"mode":4},{"attributes":{"NORMAL":18,"POSITION":1},"indices":35,"mode":4},{"attributes":{"NORMAL":19,"POSITION":2},"indices":36,"mode":4},{"attributes":{"NORMAL":20,"POSITION":3},"indices":37,"mode":4},{"attributes":{"NORMAL":21,"POSITION":4},"indices":38,"mode":4},{"attributes":{"NORMAL":22,"POSITION":5},"indices":39,"mode":4},{"attributes":{"NORMAL":23,"POSITION":6},"indices":40,"mode":4},{"attributes":{"NORMAL":24,"POSITION":7},"indices":41,"mode":4},{"attributes":{"NORMAL":25,"POSITION":8},"indices":42,"mode":4}]},{"name":"Solid","primitives":[{"attributes":{"NORMAL":26,"POSITION":9},"indices":43,"mode":4},{"attributes":{"NORMAL":27,"POSITION":10},"indices":44,"mode":4},{"attributes":{"NORMAL":28,"POSITION":11},"indices":45,"mode":4},{"attributes":{"NORMAL":29,"POSITION":12},"indices":46,"mode":4},{"attributes":{"NORMAL":30,"POSITION":13},"indices":47,"mode":4},{"attributes":{"NORMAL":31,"POSITION":14},"indices":48,"mode":4},{"attributes":{"NORMAL":32,"POSITION":15},"indices":49,"mode":4},{"attributes":{"NORMAL":33,"POSITION":16},"indices":50,"mode":4}]}],"nodes":[{"children":[1,3],"name":"Ball.brep"},{"children":[2],"name":"Compound"},{"mesh":0,"name":"Solid"},{"children":[4],"name":"Compound"},{"mesh":1,"name":"Solid"}],"scene":0,"scenes":[{"nodes":[0]}]}