{"accessors":[{"bufferView":0,"byteOffset":0,"componentType":5126,"count":4,"max":[0.025,0.5704,0.585],"min":[0.0015,0.5704,0.085],"type":"VEC3"},{"bufferView":0,"byteOffset":48,"componentType":5126,"count":115,"max":[0.0015,0.5704,0.585],"min":[0.0015,0.42960000000000006,0.085],"type":"VEC3"},{"bufferView":0,"byteOffset":1428,"componentType":5126,"count":4,"max":[0.025,0.5750000000000001,0.585],"min":[0.025,0.5704,0.085],"type":"VEC3"},{"bufferView":0,"byteOffset":1476,"componentType":5126,"count":12,"max":[0.025,0.5750000000000001,0.085],"min":[-0.025,0.425,0.085],"type":"VEC3"},{"bufferView":0,"byteOffset":1620,"componentType":5126,"count":12,"max":[0.025,0.5750000000000001,0.585],"min":[-0.025,0.425,0.585],"type":"VEC3"},{"bufferView":0,"byteOffset":1764,"componentType":5126,"count":4,"max":[0.025,0.42960000000000006,0.585],"min":[0.0015,0.42960000000000006,0.085],"type":"VEC3"},{"bufferView":0,"byteOffset":1812,"componentType":5126,"count":76,"max":[0.0015,0.5454,0.10999549483102342],"min":[-0.0015,0.5354180125572874,0.10000450516897659],"type":"VEC3"},{"bufferView":0,"byteOffset":2724,"componentType":5126,"count":76,"max":[0.0015,0.5054,0.10999549483102342],"min":[-0.0015,0.49541801255728737,0.10000450516897659],"type":"VEC3"},{"bufferView":0,"byteOffset":3636,"componentType":5126,"count":76,"max":[0.0015,0.4654,0.10999549483102342],"min":[-0.0015,0.45541801255728739,0.10000450516897659],"type":"VEC3"},{"bufferView":0,"byteOffset":4548,"componentType":5126,"count":4,"max":[0.025,0.5750000000000001,0.585],"min":[-0.025,0.5750000000000001,0.085],"type":"VEC3"},{"bufferView":0,"byteOffset":4596,"componentType":5126,"count":4,"max":[-0.025,0.5750000000000001,0.585],"min":[-0.025,0.5704,0.085],"type":"VEC3"},{"bufferView":0,"byteOffset":4644,"componentType":5126,"count":4,"max":[-0.0015,0.5704,0.585],"min":[-0.025,0.5704,0.085],"type":"VEC3"},{"bufferView":0,"byteOffset":4692,"componentType":5126,"count":115,"max":[-0.0015,0.5704,0.585],"min":[-0.0015,0.42960000000000006,0.085],"type":"VEC3"},{"bufferView":0,"byteOffset":6072,"componentType":5126,"count":4,"max":[-0.0015,0.42960000000000006,0.585],"min":[-0.025,0.42960000000000006,0.085],"type":"VEC3"},{"bufferView":0,"byteOffset":6120,"componentType":5126,"count":4,"max":[-0.025,0.42960000000000006,0.585],"min":[-0.025,0.425,0.085],"type":"VEC3"},{"bufferView":0,"byteOffset":6168,"componentType":5126,"count":4,"max":[0.025,0.425,0.585],"min":[-0.025,0.425,0.085],"type":"VEC3"},{"bufferView":0,"byteOffset":6216,"componentType":5126,"count":4,"max":[0.025,0.42960000000000006,0.585],"min":[0.025,0.425,0.085],"type":"VEC3"},{"bufferView":1,"byteOffset":0,"componentType":5126,"count":4,"type":"VEC3"},{"bufferView":1,"byteOffset":48,"componentType":5126,"count":115,"type":"VEC3"},{"bufferView":1,"byteOffset":1428,"componentType":5126,"count":4,"type":"VEC3"},{"bufferView":1,"byteOffset":1476,"componentType":5126,"count":12,"type":"VEC3"},{"bufferView":1,"byteOffset":1620,"componentType":5126,"count":12,"type":"VEC3"},{"bufferView":1,"byteOffset":1764,"componentType":5126,"count":4,"type":"VEC3"},{"bufferView":1,"byteOffset":1812,"componentType":5126,"count":76,"type":"VEC3"},{"bufferView":1,"byteOffset":2724,"componentType":5126,"count":76,"type":"VEC3"},{"bufferView":1,"byteOffset":3636,"componentType":5126,"count":76,"type":"VEC3"},{"bufferView":1,"byteOffset":4548,"componentType":5126,"count":4,"type":"VEC3"},{"bufferView":1,"byteOffset":4596,"componentType":5126,"count":4,"type":"VEC3"},{"bufferView":1,"byteOffset":4644,"componentType":5126,"count":4,"type":"VEC3"},{"bufferView":1,"byteOffset":4692,"componentType":5126,"count":115,"type":"VEC3"},{"bufferView":1,"byteOffset":6072,"componentType":5126,"count":4,"type":"VEC3"},{"bufferView":1,"byteOffset":6120,"componentType":5126,"count":4,"type":"VEC3"},{"bufferView":1,"byteOffset":6168,"componentType":5126,"count":4,"type":"VEC3"},{"bufferView":1,"byteOffset":6216,"componentType":5126,"count":4,"type":"VEC3"},{"bufferView":2,"byteOffset":0,"componentType":5123,"count":6,"type":"SCALAR"},{"bufferView":2,"byteOffset":12,"componentType":5123,"count":357,"type":"SCALAR"},{"bufferView":2,"byteOffset":728,"componentType":5123,"count":6,"type":"SCALAR"},{"bufferView":2,"byteOffset":740,"componentType":5123,"count":30,"type":"SCALAR"},{"bufferView":2,"byteOffset":800,"componentType":5123,"count":30,"type":"SCALAR"},{"bufferView":2,"byteOffset":860,"componentType":5123,"count":6,"type":"SCALAR"},{"bufferView":2,"byteOffset":872,"componentType":5123,"count":222,"type":"SCALAR"},{"bufferView":2,"byteOffset":1316,"componentType":5123,"count":222,"type":"SCALAR"},{"bufferView":2,"byteOffset":1760,"componentType":5123,"count":222,"type":"SCALAR"},{"bufferView":2,"byteOffset":2204,"componentType":5123,"count":6,"type":"SCALAR"},{"bufferView":2,"byteOffset":2216,"componentType":5123,"count":6,"type":"SCALAR"},{"bufferView":2,"byteOffset":2228,"componentType":5123,"count":6,"type":"SCALAR"},{"bufferView":2,"byteOffset":2240,"componentType":5123,"count":357,"type":"SCALAR"},{"bufferView":2,"byteOffset":2956,"componentType":5123,"count":6,"type":"SCALAR"},{"bufferView":2,"byteOffset":2968,"componentType":5123,"count":6,"type":"SCALAR"},{"bufferView":2,"byteOffset":2980,"componentType":5123,"count":6,"type":"SCALAR"},{"bufferView":2,"byteOffset":2992,"componentType":5123,"count":6,"type":"SCALAR"}],"asset":{"generator":"Open CASCADE Technology 7.7 [dev.opencascade.org]","version":"2.0"},"bufferViews":[{"buffer":0,"byteLength":6264,"byteOffset":0,"byteStride":12,"target":34962},{"buffer":0,"byteLength":6264,"byteOffset":6264,"byteStride":12,"target":34962},{"buffer":0,"byteLength":3004,"byteOffset":12528,"target":34963}],"buffers":[{"byteLength":15532,"uri":"design_123.bin"}],"meshes":[{"name":"Solid","primitives":[{"attributes":{"NORMAL":17,"POSITION":0},"indices":34,"mode":4},{"attributes":{"NORMAL":18,"POSITION":1},"indices":35,"mode":4},{"attributes":{"NORMAL":19,"POSITION":2},"indices":36,"mode":4},{"attributes":{"NORMAL":20,"POSITION":3},"indices":37,"mode":4},{"attributes":{"NORMAL":21,"POSITION":4},"indices":38,"mode":4},{"attributes":{"NORMAL":22,"POSITION":5},"indices":39,"mode":4},{"attributes":{"NORMAL":23,"POSITION":6},"indices":40,"mode":4},{"attributes":{"NORMAL":24,"POSITION":7},"indices":41,"mode":4},{"attributes":{"NORMAL":25,"POSITION":8},"indices":42,"mode":4},{"attributes":{"NORMAL":26,"POSITION":9},"indices":43,"mode":4},{"attributes":{"NORMAL":27,"POSITION":10},"indices":44,"mode":4},{"attributes":{"NORMAL":28,"POSITION":11},"indices":45,"mode":4},{"attributes":{"NORMAL":29,"POSITION":12},"indices":46,"mode":4},{"attributes":{"NORMAL":30,"POSITION":13},"indices":47,"mode":4},{"attributes":{"NORMAL":31,"POSITION":14},"indices":48,"mode":4},{"attributes":{"NORMAL":32,"POSITION":15},"indices":49,"mode":4},{"attributes":{"NORMAL":33,"POSITION":16},"indices":50,"mode":4}]}],"nodes":[{"children":[1],"name":"design_123.brep"},{"mesh":0,"name":"Solid"}],"scene":0,"scenes":[{"nodes":[0]}]}