{"accessors":[{"bufferView":0,"byteOffset":0,"componentType":5126,"count":314,"max":[0.5154000244140625,0.2685,0.0],"min":[-0.105,-0.2685,-1.0],"type":"VEC3"},{"bufferView":1,"byteOffset":0,"componentType":5123,"count":744,"type":"SCALAR"}],"asset":{"generator":"Open CASCADE Technology 7.7 [dev.opencascade.org]","version":"2.0"},"bufferViews":[{"buffer":0,"byteLength":3768,"byteOffset":0,"byteStride":12,"target":34962},{"buffer":0,"byteLength":1488,"byteOffset":3768,"target":34963}],"buffers":[{"byteLength":5256,"uri":"fin-plate-gltf.bin"}],"meshes":[{"name":"fin-plate.stl","primitives":[{"attributes":{"POSITION":0},"indices":1,"mode":4}]}],"nodes":[{"mesh":0,"name":"fin-plate.stl"}],"scene":0,"scenes":[{"nodes":[0]}]}