DBRep_DrawableShape

CASCADE Topology V1, (c) Matra-Datavision
Locations 18
1
              1               0               0            -8.8 
              0               1               0              -0 
              0               0               1              -0 
2  1 -1 0
1
              1               0               0               0 
              0               1               0               0 
              0               0               1            -210 
1
              1               0               0               0 
              0               1               0             -60 
              0               0               1               0 
2  4 -1 0
1
              1               0               0            -8.8 
              0               1               0              -0 
              0               0               1              -0 
2  6 -1 0
2  3 -1 0
1
              1               0               0               0 
              0               1               0               0 
              0               0               1            -210 
1
              1               0               0               0 
              0               1               0               0 
              0               0               1            1000 
2  10 -1 0
2  9 -1 0
1
              1               0               0               0 
              0               1               0            -500 
              0               0               1               0 
2  13 -1 0
1
              1               0               0           -12.8 
              0               1               0              -0 
              0               0               1              -0 
2  15 -1 0
1
              1               0               0           -12.8 
              0               1               0              -0 
              0               0               1              -0 
2  17 -1 0
Curve2ds 260
1 -5.6843418860808015e-14 10.5 -0.86602540378443804 -0.50000000000000122 
1 0 0 1 0 
1 0 -8.7999999999999989 1 0 
1 185 -45.5 0.86602540378443804 0.50000000000000122 
1 -9.0932667397366345 5.25 0 -1 
1 0 0 1 0 
1 0 -8.7999999999999989 1 0 
1 194.09326673973658 -40.25 0 1 
1 -9.0932667397366345 -5.25 0.86602540378443804 -0.50000000000000122 
1 0 0 1 0 
1 0 -8.7999999999999989 1 0 
1 194.09326673973658 -29.75 -0.86602540378443804 0.50000000000000122 
1 -5.6843418860808015e-14 -10.5 0.86602540378443804 0.50000000000000122 
1 0 0 1 0 
1 0 -8.7999999999999989 1 0 
1 185 -24.5 -0.86602540378443804 -0.50000000000000122 
1 9.0932667397365208 -5.25 0 1 
1 0 0 1 0 
1 0 -8.7999999999999989 1 0 
1 175.90673326026342 -29.75 0 -1 
1 9.0932667397365208 5.25 -0.86602540378443804 0.50000000000000122 
1 0 0 1 0 
1 -0 -8.7999999999999989 1 0 
1 175.90673326026342 -40.25 0.86602540378443804 -0.50000000000000122 
1 0 0 0 -1 
1 10.499999999999975 0 0 -1 
1 10.499999999999975 0 0 -1 
1 0 0 0 -1 
1 0 0 0 -1 
1 10.5 0 0 -1 
1 10.499999999999975 0 0 -1 
1 0 0 0 -1 
1 10.499999999999975 0 0 -1 
1 0 0 0 -1 
1 0 0 0 -1 
1 10.5 0 0 -1 
1 3 0 0 -1 
1 0 0 0 -1 
1 0 -3 1 0 
1 8 0 0 -1 
1 0 0 0 -1 
1 0 0 0 -1 
1 210 0 0 -1 
1 0 0 1 0 
1 0 -60 1 0 
1 -104.99999999999989 -3.9999999999999991 1 0 
1 63.149999999999999 -617.89999999999998 0 1 
1 1.1368683772161603e-13 10.5 -0.86602540378443804 -0.50000000000000122 
1 0 0 1 0 
1 0 -8.7999999999999989 1 0 
1 25 -45.5 0.86602540378443804 0.50000000000000122 
1 9.0932667397366913 5.25 -0.86602540378443804 0.50000000000000122 
1 0 0 1 0 
1 -0 -8.7999999999999989 1 0 
1 15.906733260263422 -40.25 0.86602540378443804 -0.50000000000000122 
1 -9.0932667397364639 5.25 0 -1 
1 0 0 1 0 
1 0 -8.7999999999999989 1 0 
1 34.093266739736578 -40.25 0 1 
1 9.0932667397366913 -5.25 0 1 
1 0 0 1 0 
1 0 -8.7999999999999989 1 0 
1 15.906733260263422 -29.75 0 -1 
1 -9.0932667397364639 -5.25 0.86602540378443804 -0.50000000000000122 
1 0 0 1 0 
1 0 -8.7999999999999989 1 0 
1 34.093266739736578 -29.75 -0.86602540378443804 0.50000000000000122 
1 1.1368683772161603e-13 -10.5 0.86602540378443804 0.50000000000000122 
1 0 0 1 0 
1 0 -8.7999999999999989 1 0 
1 25 -24.5 -0.86602540378443804 -0.50000000000000122 
1 0 0 1 0 
1 0 -210 1 0 
1 -1.060660171779821 -1.9393398282201701 0.70710678118654757 0.70710678118654757 
1 4.2426406871192857 0 0 -1 
1 0 0 0 -1 
1 60.149999999999999 -617.89999999999998 0 1 
1 0 0 1 0 
1 0 -60 1 0 
1 -104.99999999999989 4.0000000000000009 0 -1 
1 71.150000000000006 -617.89999999999998 -1 0 
1 0 0 1 0 
2 8 0 -1 0 0 1 0.10000000000000001
1 0 0 1 0 
1 -1.060660171779821 1.0606601717798299 0 -1 
1 0 0 0 -1 
1 210 0 0 -1 
1 19 10 0 -1 
1 3 0 -1 0 
1 1.0606601717798214 1.0606601717798299 0 -1 
1 0 -210 1 0 
1 -1.060660171779821 1.0606601717798299 0 -1 
1 0 0 1 0 
1 0 -60 1 0 
1 105.00000000000011 -3.9999999999999991 0 1 
1 63.149999999999999 -407.89999999999998 1 0 
1 8 0 0 -1 
1 0 0 0 -1 
1 3 -210 -1 0 
1 1.0606601717798214 1.0606601717798299 0 -1 
1 229 10 0 -1 
1 0 0 1 0 
1 0 -60 1 0 
1 105.00000000000011 4.0000000000000009 -1 0 
1 229 -50 -1 0 
1 71.150000000000006 -407.89999999999998 0 -1 
1 0 0 0 -1 
1 10.499999999999975 0 0 -1 
1 10.499999999999975 0 0 -1 
1 0 0 0 -1 
1 0 0 0 -1 
1 10.5 0 0 -1 
1 0 0 0 -1 
1 10.5 0 0 -1 
1 10.499999999999975 0 0 -1 
1 0 0 0 -1 
1 10.499999999999975 0 0 -1 
1 0 0 0 -1 
1 0 0 1 0 
2 -1.060660171779821 1.0606601717798299 -1 0 0 1 0.10000000000000001
1 0 0 1 0 
1 0 -210 1 0 
1 1.939339828220179 1.0606601717798299 -1 0 
1 60.149999999999999 -617.89999999999998 1 0 
1 60.149999999999999 -407.89999999999998 1 0 
1 0 0 0 -1 
1 0 0 1 0 
1 0 -1000 1 0 
1 150 0 0 -1 
1 0 0 1 0 
1 0 -210 1 0 
1 1.0606601717798214 1.0606601717798299 -1 0 
1 71.150000000000006 -617.89999999999998 1 0 
1 3 0 0 -1 
1 0 0 -0 -1 
1 74.150000000000006 -617.89999999999998 0 1 
1 71.150000000000006 -407.89999999999998 1 0 
1 3.1415926535897931 -4.7123889803846897 -0 1 
2 63.149999999999999 -617.89999999999998 0 -1 1 0 0.10000000000000001
1 6.2831853071795862 -6.2831853071795862 0 1 
1 0 -6.2831853071795862 0 1 
2 63.149999999999999 -617.89999999999998 1 0 0 -1 0.099999999999999645
1 0 1.5707963267948966 1 0 
1 0 0 1 0 
1 0 -500 1 0 
1 -136.90000000000003 -3.8500000000000014 1 0 
1 273.79999999999995 0 0 -1 
1 0 0 0 -1 
1 229 -10 -1 0 
1 4.2426406871192857 0 -0 -1 
1 0 0 0 -1 
1 210 -3 -1 0 
1 0 0 1 0 
1 -0 -210 1 0 
1 -1.9393398282201786 1.0606601717798299 0.70710678118654757 -0.70710678118654757 
1 -136.90000000000003 3.8499999999999988 0 1 
1 136.89999999999992 3.8499999999999988 -1 0 
1 0 0 1 0 
1 0 -500 1 0 
1 -136.90000000000003 70 -1 0 
1 136.89999999999992 70 0 -1 
1 -150.00000000000006 70 0 -1 
1 149.99999999999994 70 -1 0 
1 -150.00000000000006 -70 1 0 
1 149.99999999999994 -70 0 1 
1 -136.90000000000003 -70 0 1 
1 136.89999999999992 -70 1 0 
1 136.89999999999992 -3.8500000000000014 0 -1 
1 273.79999999999995 0 0 -1 
1 0 0 0 -1 
1 0 0 1 0 
1 0 -12.800000000000001 1 0 
1 5.6843418860808015e-14 10.5 -0.86602540378443804 -0.50000000000000122 
1 69.799999999999955 -35.5 0.86602540378443804 0.50000000000000122 
1 -9.0932667397365208 5.25 0 -1 
1 0 0 1 0 
1 0 -12.800000000000001 1 0 
1 78.893266739736532 -30.25 0 1 
1 0 0 1 0 
1 0 -12.800000000000001 1 0 
1 -9.0932667397365208 -5.25 0.86602540378443804 -0.50000000000000122 
1 78.893266739736532 -19.75 -0.86602540378443804 0.50000000000000122 
1 0 0 1 0 
1 -0 -12.800000000000001 1 0 
1 5.6843418860808015e-14 -10.5 0.86602540378443804 0.50000000000000122 
1 69.799999999999955 -14.5 -0.86602540378443804 -0.50000000000000122 
1 9.0932667397366345 -5.25 0 1 
1 0 0 1 0 
1 0 -12.800000000000001 1 0 
1 60.706733260263377 -19.75 0 -1 
1 0 0 1 0 
1 0 -12.800000000000001 1 0 
1 9.0932667397366345 5.25 -0.86602540378443804 0.50000000000000122 
1 60.706733260263377 -30.25 0.86602540378443804 -0.50000000000000122 
1 0 0 1 0 
1 0 -12.800000000000001 1 0 
1 -1.1368683772161603e-13 10.5 -0.86602540378443804 -0.50000000000000122 
1 229.79999999999995 -35.5 0.86602540378443804 0.50000000000000122 
1 0 0 1 0 
1 0 -12.800000000000001 1 0 
1 9.0932667397364639 5.25 -0.86602540378443804 0.50000000000000122 
1 220.70673326026338 -30.25 0.86602540378443804 -0.50000000000000122 
1 -9.0932667397366913 5.25 0 -1 
1 0 0 1 0 
1 0 -12.800000000000001 1 0 
1 238.89326673973653 -30.25 0 1 
1 9.0932667397364639 -5.25 0 1 
1 0 0 1 0 
1 0 -12.800000000000001 1 0 
1 220.70673326026338 -19.75 0 -1 
1 0 0 1 0 
1 0 -12.800000000000001 1 0 
1 -9.0932667397366913 -5.25 0.86602540378443804 -0.50000000000000122 
1 238.89326673973653 -19.75 -0.86602540378443804 0.50000000000000122 
1 0 0 1 0 
1 -0 -12.800000000000001 1 0 
1 -1.1368683772161603e-13 -10.5 0.86602540378443804 0.50000000000000122 
1 229.79999999999995 -14.5 -0.86602540378443804 -0.50000000000000122 
1 0 0 0 -1 
1 10.499999999999975 0 0 -1 
1 10.499999999999975 0 0 -1 
1 0 0 0 -1 
1 0 0 0 -1 
1 10.5 0 0 -1 
1 10.499999999999975 0 0 -1 
1 0 0 0 -1 
1 10.499999999999975 0 0 -1 
1 0 0 0 -1 
1 0 0 0 -1 
1 10.5 0 0 -1 
1 0 0 0 -1 
1 10.499999999999975 0 0 -1 
1 10.499999999999975 0 0 -1 
1 0 0 0 -1 
1 0 0 0 -1 
1 10.5 0 0 -1 
1 0 0 0 -1 
1 10.5 0 0 -1 
1 10.499999999999975 0 0 -1 
1 0 0 0 -1 
1 10.499999999999975 0 0 -1 
1 0 0 0 -1 
1 0 0 1 0 
2 0 0 1 0 -0 1 7
2 5.6843418860808015e-14 0 1 0 -0 1 7
1 3.1415926535897931 28.5 -1 0 
1 9.4247779607693793 28.5 -1 0 
1 0 0 1 0 
2 0 0 1 0 -0 1 7
2 -1.1368683772161603e-13 0 1 0 -0 1 7
1 3.1415926535897931 28.5 -1 0 
1 9.4247779607693793 28.5 -1 0 
1 6.2831853071795862 -0 0 1 
1 0 -0 0 1 
1 0 40 1 0 
2 0 0 1 0 -0 1 7
1 6.2831853071795862 -0 0 1 
1 0 -0 0 1 
1 0 40 1 0 
2 0 0 1 0 -0 1 7
Curves 122
1 -11.85 -120.5 432.89999999999998 0 0.50000000000000122 -0.86602540378443804 
1 -11.85 -115.25 423.8067332602634 0 1 0 
1 -11.85 -104.75 423.8067332602634 0 0.50000000000000122 0.86602540378443804 
1 -11.85 -99.5 432.89999999999998 0 -0.50000000000000122 0.86602540378443804 
1 -11.85 -104.75 441.99326673973655 0 -1 0 
1 -11.85 -115.25 441.99326673973655 0 -0.50000000000000122 -0.86602540378443804 
1 -11.85 -120.5 432.89999999999998 -1 -0 -0 
1 -11.85 -115.25 423.8067332602634 -1 -0 -0 
1 -11.85 -104.75 423.8067332602634 -1 -0 -0 
1 -11.85 -99.5 432.89999999999998 -1 -0 -0 
1 -11.85 -104.75 441.99326673973655 -1 -0 -0 
1 -11.85 -115.25 441.99326673973655 -1 -0 -0 
1 -11.85 -78 617.89999999999998 0 0 -1 
1 -11.85 -75 617.89999999999998 0 -1 0 
1 -11.85 -75 407.89999999999998 0 -1 0 
1 -11.85 -75 617.89999999999998 0 0 -1 
1 -11.85 -120.5 592.89999999999998 0 0.50000000000000122 -0.86602540378443804 
1 -11.85 -115.25 601.99326673973655 0 -0.50000000000000122 -0.86602540378443804 
1 -11.85 -115.25 583.8067332602634 0 1 0 
1 -11.85 -104.75 601.99326673973655 0 -1 0 
1 -11.85 -104.75 583.8067332602634 0 0.50000000000000122 0.86602540378443804 
1 -11.85 -99.5 592.89999999999998 0 -0.50000000000000122 0.86602540378443804 
1 -11.85 -78 617.89999999999998 -0.70710678118654757 0.70710678118654757 0 
1 -14.85 -75 617.89999999999998 0 0 -1 
1 -3.8499999999999996 -75 617.89999999999998 -1 0 0 
2 -11.85 -75 617.89999999999998 0 0 1 1 0 -0 -0 1 0 0.10000000000000001
1 -3.8499999999999996 -75 617.89999999999998 0 -1 0 
1 -11.85 -75 407.89999999999998 1 0 0 
1 -3.8499999999999996 -75 407.89999999999998 0 -1 0 
1 -3.8499999999999996 -75 407.89999999999998 0 0 1 
1 -11.85 -120.5 592.89999999999998 -1 -0 -0 
1 -11.85 -115.25 583.8067332602634 -1 -0 -0 
1 -11.85 -115.25 601.99326673973655 -1 -0 -0 
1 -11.85 -104.75 583.8067332602634 -1 -0 -0 
1 -11.85 -104.75 601.99326673973655 -1 -0 -0 
1 -11.85 -99.5 592.89999999999998 -1 -0 -0 
2 -11.85 -75 617.89999999999998 0 0 1 1 0 -0 -0 1 0 0.10000000000000001
1 -14.85 -75 617.89999999999998 1 0 0 
1 -75 -75 0 0 0 1 
1 -75 -75 0 1 0 0 
1 75 -75 0 0 0 1 
1 -3.8499999999999996 -75 617.89999999999998 1 0 0 
1 -0.84999999999999964 -75 617.89999999999998 0 0 -1 
2 -11.85 -75 617.89999999999998 0 1 0 0 -0 1 1 0 -0 0.10000000000000001
2 -11.85 -75 617.89999999999998 -2.4492935982947064e-16 -1 0 1 -2.4492935982947064e-16 0 0 0 1 0.10000000000000001
1 -3.8500000000000001 -85 636.89999999999998 0 0 -1 
1 -3.8500000000000001 -85 363.10000000000002 0 -1 0 
1 -3.8500000000000001 -85 636.89999999999998 0 -1 0 
1 -3.8499999999999996 -78 617.89999999999998 0 0 -1 
1 -0.84999999999999964 -75 617.89999999999998 -0.70710678118654757 -0.70710678118654757 0 
1 -75 -66 0 0 0 1 
1 -75 -66 0 0 -1 0 
1 2.7000000000000002 66 0 1 0 0 
1 75 66 0 0 1 0 
1 75 75 0 -1 0 0 
1 -75 75 0 0 -1 0 
1 -75 66 0 1 0 0 
1 -2.7000000000000002 66 0 0 -1 0 
1 -2.7000000000000002 -66 0 -1 0 0 
1 75 -75 0 0 1 0 
1 75 -66 0 -1 0 0 
1 2.7000000000000002 -66 0 0 1 0 
1 75 -66 0 0 0 1 
1 3.8500000000000001 -85 636.89999999999998 1 0 0 
1 3.8500000000000001 -85 363.10000000000002 0 0 1 
1 70 -85 636.89999999999998 0 0 1 
1 70 -85 363.10000000000002 -1 0 0 
1 70 -85 650 -1 0 0 
1 70 -85 350 0 0 1 
1 -70 -85 650 0 0 -1 
1 -70 -85 350 1 0 0 
1 -70 -85 636.89999999999998 1 0 0 
1 -70 -85 363.10000000000002 0 0 -1 
1 -3.8500000000000001 -85 363.10000000000002 -1 0 0 
1 -70 -85 363.10000000000002 0 -1 0 
1 -70 -85 636.89999999999998 0 -1 0 
1 -2.7000000000000002 -66 0 0 0 1 
1 2.7000000000000002 66 0 0 0 1 
1 75 66 0 0 0 1 
1 75 75 0 0 0 1 
1 -75 75 0 0 0 1 
1 -75 66 0 0 0 1 
1 -2.7000000000000002 66 0 0 0 1 
1 2.7000000000000002 -66 0 0 0 1 
1 3.8500000000000001 -85 636.89999999999998 0 -1 0 
1 70 -85 636.89999999999998 0 -1 0 
1 3.8500000000000001 -85 363.10000000000002 0 -1 0 
1 16.649999999999999 -120.5 432.89999999999998 0 0.50000000000000122 0.86602540378443804 
1 16.649999999999999 -115.25 441.99326673973655 0 1 0 
1 16.649999999999999 -104.75 441.99326673973655 0 0.50000000000000122 -0.86602540378443804 
1 16.649999999999999 -99.5 432.89999999999998 0 -0.50000000000000122 -0.86602540378443804 
1 16.649999999999999 -104.75 423.8067332602634 0 -1 0 
1 16.649999999999999 -115.25 423.8067332602634 0 -0.50000000000000122 0.86602540378443804 
1 16.649999999999999 -120.5 592.89999999999998 0 0.50000000000000122 0.86602540378443804 
1 16.649999999999999 -115.25 583.8067332602634 0 -0.50000000000000122 0.86602540378443804 
1 16.649999999999999 -115.25 601.99326673973655 0 1 0 
1 16.649999999999999 -104.75 583.8067332602634 0 -1 0 
1 16.649999999999999 -104.75 601.99326673973655 0 0.50000000000000122 -0.86602540378443804 
1 16.649999999999999 -99.5 592.89999999999998 0 -0.50000000000000122 -0.86602540378443804 
1 70 -85 650 0 -1 0 
1 70 -85 363.10000000000002 0 -1 0 
1 -70 -85 650 0 -1 0 
1 70 -85 350 0 -1 0 
1 -70 -85 350 0 -1 0 
1 16.649999999999999 -120.5 432.89999999999998 -1 -0 -0 
1 16.649999999999999 -115.25 441.99326673973655 -1 -0 -0 
1 16.649999999999999 -104.75 441.99326673973655 -1 -0 -0 
1 16.649999999999999 -99.5 432.89999999999998 -1 -0 -0 
1 16.649999999999999 -104.75 423.8067332602634 -1 -0 -0 
1 16.649999999999999 -115.25 423.8067332602634 -1 -0 -0 
1 16.649999999999999 -120.5 592.89999999999998 -1 -0 -0 
1 16.649999999999999 -115.25 601.99326673973655 -1 -0 -0 
1 16.649999999999999 -115.25 583.8067332602634 -1 -0 -0 
1 16.649999999999999 -104.75 601.99326673973655 -1 -0 -0 
1 16.649999999999999 -104.75 583.8067332602634 -1 -0 -0 
1 16.649999999999999 -99.5 592.89999999999998 -1 -0 -0 
2 16.649999999999999 -110 432.89999999999998 -1 -0 -0 0 0 -1 0 -1 0 7
2 16.649999999999999 -110 592.89999999999998 -1 -0 -0 0 0 -1 0 -1 0 7
1 -11.85 -109.99999999999999 439.89999999999998 1 0 0 
2 28.149999999999999 -110 432.89999999999998 1 0 0 -0 0 1 0 -1 0 7
1 -11.85 -110 599.89999999999998 1 0 0 
2 28.149999999999999 -110 592.89999999999998 1 0 0 -0 0 1 0 -1 0 7
Polygon3D 0
PolygonOnTriangulations 0
Surfaces 76
1 -11.850000000000001 -110 432.90000000000003 1 4.7701339695904054e-33 1.8317314443227252e-30 -1.8317314443227252e-30 0 1 4.7701339695904054e-33 -1 8.7376043857307285e-63 
1 -11.85 -120.5 432.89999999999998 0 -0.86602540378443804 -0.50000000000000122 0 0.50000000000000122 -0.86602540378443804 1 0 0 
1 -11.85 -75 617.89999999999998 1 0 0 0 0 -1 -0 1 0 
1 -11.85 -115.25 423.8067332602634 0 0 -1 0 1 0 1 -0 0 
1 -11.85 -104.75 423.8067332602634 0 0.86602540378443804 -0.50000000000000122 0 0.50000000000000122 0.86602540378443804 1 -0 0 
1 -11.85 -99.5 432.89999999999998 -0 0.86602540378443804 0.50000000000000122 0 -0.50000000000000122 0.86602540378443804 1 0 0 
1 -11.85 -104.75 441.99326673973655 -0 0 1 0 -1 0 1 0 0 
1 -11.85 -115.25 441.99326673973655 0 -0.86602540378443804 0.50000000000000122 0 -0.50000000000000122 -0.86602540378443804 1 0 0 
1 -11.85 -75 617.89999999999998 -1 -0 -0 0 -1 0 -0 0 1 
1 -11.85 -78 617.89999999999998 0.70710678118654757 0.70710678118654757 0 -0.70710678118654757 0.70710678118654757 0 0 -0 1 
1 -3.8499999999999996 -75 617.89999999999998 -0 -0 -1 -1 0 0 0 1 -0 
1 -11.85 -75 407.89999999999998 -0 0 1 1 0 0 0 1 -0 
1 -7.8500000000000005 -75 512.90000000000009 -0 -1 -0 0 0 -1 1 -0 0 
1 -75 -75 0 0 1 0 1 0 0 0 0 -1 
1 -11.850000000000001 -110 592.89999999999986 1 4.7701339695904054e-33 -3.6634628886454512e-30 3.6634628886454512e-30 0 1 4.7701339695904054e-33 -1 -1.7475208771461459e-62 
1 -11.85 -120.5 592.89999999999998 0 -0.86602540378443804 -0.50000000000000122 0 0.50000000000000122 -0.86602540378443804 1 0 0 
1 -11.85 -115.25 601.99326673973655 0 -0.86602540378443804 0.50000000000000122 0 -0.50000000000000122 -0.86602540378443804 1 0 0 
1 -11.85 -115.25 583.8067332602634 0 0 -1 0 1 0 1 -0 0 
1 -11.85 -104.75 601.99326673973655 -0 0 1 0 -1 0 1 0 0 
1 -11.85 -104.75 583.8067332602634 0 0.86602540378443804 -0.50000000000000122 0 0.50000000000000122 0.86602540378443804 1 -0 0 
1 -11.85 -99.5 592.89999999999998 -0 0.86602540378443804 0.50000000000000122 0 -0.50000000000000122 0.86602540378443804 1 0 0 
1 -12.910660171779821 -76.06066017177983 617.89999999999998 -0 -0 -1 -1 0 0 0 1 -0 
1 -14.85 -75 617.89999999999998 0 -1 0 1 0 0 -0 0 1 
4 -11.85 -75 617.89999999999998 0 0 1 1 0 -0 -0 1 0 0.10000000000000001
1 -3.8499999999999996 -75 407.89999999999998 -1 0 0 0 0 1 0 1 -0 
1 -3.8500000000000001 -85 636.89999999999998 1 0 0 0 0 -1 -0 1 0 
1 -3.8499999999999996 -78 617.89999999999998 1 -0 0 0 1 0 -0 0 1 
1 -2.7893398282201782 -76.06066017177983 617.89999999999998 -0 -0 -1 -1 0 0 0 1 -0 
1 -3.8499999999999996 -75 617.89999999999998 0 -1 0 1 0 0 -0 0 1 
1 -0.84999999999999964 -75 617.89999999999998 -0.70710678118654757 0.70710678118654757 0 -0.70710678118654757 -0.70710678118654757 0 0 0 1 
1 1.3905431837346012e-15 -85 499.99999999999994 -0 -1 -0 0 0 -1 1 -0 0 
1 -75 -66 0 1 0 -0 0 -1 0 0 -0 -1 
1 -9.5889707929838079e-16 -1.0228235512516062e-15 0 0 0 1 1 0 -0 -0 1 0 
1 75 -75 0 -1 0 0 0 1 0 0 0 -1 
1 3.8500000000000001 -85 363.10000000000002 -1 0 0 0 0 1 0 1 -0 
1 -3.8500000000000001 -85 363.10000000000002 -0 -0 -1 -1 0 0 0 1 -0 
1 -70 -85 636.89999999999998 -0 0 1 1 0 0 0 1 -0 
1 -2.7000000000000002 -66 0 0 -1 0 -1 0 0 -0 -0 -1 
1 2.7000000000000002 66 0 0 1 0 1 0 0 0 0 -1 
1 75 66 0 -1 0 0 0 1 0 0 0 -1 
1 75 75 0 0 -1 0 -1 0 0 -0 -0 -1 
1 -75 75 0 1 0 -0 0 -1 0 0 -0 -1 
1 -75 66 0 0 1 0 1 0 0 0 0 -1 
1 -2.7000000000000002 66 0 1 0 -0 0 -1 0 0 -0 -1 
1 75 -66 0 0 -1 0 -1 0 0 -0 -0 -1 
1 2.7000000000000002 -66 0 -1 0 0 0 1 0 0 0 -1 
1 3.8500000000000001 -85 636.89999999999998 -0 0 1 1 0 0 0 1 -0 
1 16.649999999999999 -120.5 432.89999999999998 0 0.86602540378443804 -0.50000000000000122 0 0.50000000000000122 0.86602540378443804 1 -0 0 
1 16.649999999999999 -110 432.90000000000003 -1 -0 -0 0 0 -1 0 -1 0 
1 16.649999999999999 -115.25 441.99326673973655 0 0 -1 0 1 0 1 -0 0 
1 16.649999999999999 -104.75 441.99326673973655 0 -0.86602540378443804 -0.50000000000000122 0 0.50000000000000122 -0.86602540378443804 1 0 0 
1 16.649999999999999 -99.5 432.89999999999998 0 -0.86602540378443804 0.50000000000000122 0 -0.50000000000000122 -0.86602540378443804 1 0 0 
1 16.649999999999999 -104.75 423.8067332602634 -0 0 1 0 -1 0 1 0 0 
1 16.649999999999999 -115.25 423.8067332602634 -0 0.86602540378443804 0.50000000000000122 0 -0.50000000000000122 0.86602540378443804 1 0 0 
1 16.649999999999999 -120.5 592.89999999999998 0 0.86602540378443804 -0.50000000000000122 0 0.50000000000000122 0.86602540378443804 1 -0 0 
1 16.649999999999999 -110 592.89999999999986 -1 -0 -0 0 0 -1 0 -1 0 
1 16.649999999999999 -115.25 583.8067332602634 -0 0.86602540378443804 0.50000000000000122 0 -0.50000000000000122 0.86602540378443804 1 0 0 
1 16.649999999999999 -115.25 601.99326673973655 0 0 -1 0 1 0 1 -0 0 
1 16.649999999999999 -104.75 583.8067332602634 -0 0 1 0 -1 0 1 0 0 
1 16.649999999999999 -104.75 601.99326673973655 0 -0.86602540378443804 -0.50000000000000122 0 0.50000000000000122 -0.86602540378443804 1 0 0 
1 16.649999999999999 -99.5 592.89999999999998 0 -0.86602540378443804 0.50000000000000122 0 -0.50000000000000122 -0.86602540378443804 1 0 0 
1 70 -85 636.89999999999998 -1 0 0 0 0 1 0 1 -0 
1 70 -85 363.10000000000002 -0 -0 -1 -1 0 0 0 1 -0 
1 70 -85 650 -0 -0 -1 -1 0 0 0 1 -0 
1 70 -85 350 -1 0 0 0 0 1 0 1 -0 
1 -70 -85 650 1 0 0 0 0 -1 -0 1 0 
1 -70 -85 350 -0 0 1 1 0 0 0 1 -0 
1 -70 -85 363.10000000000002 1 0 0 0 0 -1 -0 1 0 
2 16.649999999999999 -110 432.89999999999998 -1 -0 -0 0 0 -1 0 -1 0 7
1 16.649999999999999 -110 432.89999999999998 -1 -0 -0 0 0 -1 0 -1 0 
2 -11.85 -110 432.89999999999998 1 0 0 -0 0 1 0 -1 0 7
2 16.649999999999999 -110 592.89999999999998 -1 -0 -0 0 0 -1 0 -1 0 7
1 16.649999999999999 -110 592.89999999999998 -1 -0 -0 0 0 -1 0 -1 0 
2 -11.85 -110 592.89999999999998 1 0 0 -0 0 1 0 -1 0 7
1 28.149999999999999 -110 432.89999999999998 1 0 0 -0 0 1 0 -1 0 
1 28.149999999999999 -110 592.89999999999998 1 0 0 -0 0 1 0 -1 0 
Triangulations 0

TShapes 361
Ve
1e-07
-11.85 -120.5 432.9
0 0

0101101
*
Ve
1e-07
-11.85 -115.25 423.806733260263
0 0

0101101
*
Ed
 1e-07 1 1 0
1  1 0 0 10.5
2  1 1 0 0 10.5
2  2 2 0 0 10.5
2  3 2 2 0 10.5
2  4 3 0 0 10.5
0

0101000
+361 0 -360 0 *
Ve
1e-07
-11.85 -104.75 423.806733260263
0 0

0101101
*
Ed
 1e-07 1 1 0
1  2 0 0 10.5
2  5 1 0 0 10.5
2  6 4 0 0 10.5
2  7 4 2 0 10.5
2  8 3 0 0 10.5
0

0101000
+360 0 -358 0 *
Ve
1e-07
-11.85 -99.5 432.9
0 0

0101101
*
Ed
 1e-07 1 1 0
1  3 0 0 10.5
2  9 1 0 0 10.5
2  10 5 0 0 10.5
2  11 5 2 0 10.5
2  12 3 0 0 10.5
0

0101000
+358 0 -356 0 *
Ve
1e-07
-11.85 -104.75 441.993266739737
0 0

0101101
*
Ed
 1e-07 1 1 0
1  4 0 0 10.5
2  13 1 0 0 10.5
2  14 6 0 0 10.5
2  15 6 2 0 10.5
2  16 3 0 0 10.5
0

0101000
+356 0 -354 0 *
Ve
1e-07
-11.85 -115.25 441.993266739737
0 0

0101101
*
Ed
 1e-07 1 1 0
1  5 0 0 10.5
2  17 1 0 0 10.5
2  18 7 0 0 10.5
2  19 7 2 0 10.5
2  20 3 0 0 10.5
0

0101000
+354 0 -352 0 *
Ed
 1e-07 1 1 0
1  6 0 0 10.5
2  21 1 0 0 10.5
2  22 8 0 0 10.5
2  23 8 2 0 10.5
2  24 3 0 0 10.5
0

0101000
+352 0 -361 0 *
Wi

0101100
+359 0 +357 0 +355 0 +353 0 +351 0 +350 0 *
Fa
0  1e-07 1 0

0111000
+349 0 *
Ed
 1e-07 1 1 0
1  7 0 0 8.8
2  25 2 0 0 8.8
2  26 8 0 0 8.8
0

0101000
+361 0 -361 1 *
Ed
 1e-07 1 1 0
1  8 0 0 8.8
2  27 2 0 0 8.8
2  28 4 0 0 8.8
0

0101000
+360 0 -360 1 *
Wi

0101100
+347 0 -359 0 +359 1 -346 0 *
Fa
0  1e-07 2 0

0111000
+345 0 *
Ed
 1e-07 1 1 0
1  9 0 0 8.8
2  29 5 0 0 8.8
2  30 4 0 0 8.8
0

0101000
+358 0 -358 1 *
Wi

0101100
+346 0 -357 0 +357 1 -343 0 *
Fa
0  1e-07 4 0

0101000
+342 0 *
Ed
 1e-07 1 1 0
1  10 0 0 8.8
2  31 5 0 0 8.8
2  32 6 0 0 8.8
0

0101000
+356 0 -356 1 *
Wi

0101100
+343 0 -355 0 +355 1 -340 0 *
Fa
0  1e-07 5 0

0101000
+339 0 *
Ed
 1e-07 1 1 0
1  11 0 0 8.8
2  33 6 0 0 8.8
2  34 7 0 0 8.8
0

0101000
+354 0 -354 1 *
Wi

0101100
+340 0 -353 0 +353 1 -337 0 *
Fa
0  1e-07 6 0

0101000
+336 0 *
Ed
 1e-07 1 1 0
1  12 0 0 8.8
2  35 8 0 0 8.8
2  36 7 0 0 8.8
0

0101000
+352 0 -352 1 *
Wi

0101100
+337 0 -351 0 +351 1 -334 0 *
Fa
0  1e-07 7 0

0111000
+333 0 *
Wi

0101100
+334 0 -350 0 +350 1 -347 0 *
Fa
0  1e-07 8 0

0101000
+331 0 *
Ve
1e-07
-11.85 -78 617.9
0 0

0101101
*
Ed
 1e-07 1 1 0
1  13 0 0 210
2  37 9 0 0 210
2  38 10 0 0 210
2  39 3 0 0 210
0

0101000
+329 0 -329 3 *
Ve
1e-07
-11.85 -75 617.9
0 0

0101101
*
Ed
 1e-07 1 1 0
1  14 0 3 60
2  40 11 0 3 60
2  41 3 0 3 60
0

0101000
+329 0 -327 4 *
Ve
1e-07
-11.85 -75 407.9
0 0

0101101
*
Ed
 1e-07 1 1 0
1  15 0 3 60
2  42 12 0 3 60
2  43 3 0 3 60
0

0101000
+329 3 -325 4 *
Ed
 1e-07 1 1 0
1  16 0 0 210
2  44 3 0 0 210
2  45 3 5 0 210
2  46 13 0 0 210
2  47 14 0 0 210
0

0101000
+327 0 -325 0 *
Wi

0101100
-328 0 +326 0 -324 0 +323 4 *
Wi

0101100
-359 0 -357 0 -355 0 -353 0 -351 0 -350 0 *
Ve
1e-07
-11.85 -120.5 592.9
0 0

0101101
*
Ve
1e-07
-11.85 -115.25 583.806733260263
0 0

0101101
*
Ed
 1e-07 1 1 0
1  17 0 0 10.5
2  48 15 0 0 10.5
2  49 16 0 0 10.5
2  50 16 7 0 10.5
2  51 3 0 0 10.5
0

0101000
+320 0 -319 0 *
Ve
1e-07
-11.85 -115.25 601.993266739737
0 0

0101101
*
Ed
 1e-07 1 1 0
1  18 0 0 10.5
2  52 15 0 0 10.5
2  53 17 0 0 10.5
2  54 17 7 0 10.5
2  55 3 0 0 10.5
0

0101000
+317 0 -320 0 *
Ve
1e-07
-11.85 -104.75 583.806733260263
0 0

0101101
*
Ed
 1e-07 1 1 0
1  19 0 0 10.5
2  56 15 0 0 10.5
2  57 18 0 0 10.5
2  58 18 7 0 10.5
2  59 3 0 0 10.5
0

0101000
+319 0 -315 0 *
Ve
1e-07
-11.85 -104.75 601.993266739737
0 0

0101101
*
Ed
 1e-07 1 1 0
1  20 0 0 10.5
2  60 15 0 0 10.5
2  61 19 0 0 10.5
2  62 19 7 0 10.5
2  63 3 0 0 10.5
0

0101000
+313 0 -317 0 *
Ve
1e-07
-11.85 -99.5 592.9
0 0

0101101
*
Ed
 1e-07 1 1 0
1  21 0 0 10.5
2  64 15 0 0 10.5
2  65 20 0 0 10.5
2  66 20 7 0 10.5
2  67 3 0 0 10.5
0

0101000
+315 0 -311 0 *
Ed
 1e-07 1 1 0
1  22 0 0 10.5
2  68 15 0 0 10.5
2  69 21 0 0 10.5
2  70 21 7 0 10.5
2  71 3 0 0 10.5
0

0101000
+311 0 -313 0 *
Wi

0101100
-318 0 -316 0 -314 0 -312 0 -310 0 -309 0 *
Fa
0  1e-07 3 0

0111000
+322 0 +321 0 +308 0 *
Ve
1e-07
-14.85 -75 617.9
0 0

0101101
*
Ed
 1e-07 1 1 0
1  23 0 0 4.24264068711928
2  72 10 0 0 4.24264068711928
2  73 10 8 0 4.24264068711928
2  74 22 0 0 4.24264068711928
0

0101000
+329 0 -306 0 *
Ed
 1e-07 1 1 0
1  24 0 0 210
2  75 10 0 0 210
2  76 23 0 0 210
2  77 14 0 0 210
0

0101000
+306 0 -306 3 *
Wi

0101100
+328 0 -305 0 +305 3 -304 0 *
Fa
0  1e-07 10 0

0111000
+303 0 *
Ve
1e-07
-3.85 -75 617.9
0 0

0101101
*
Ve
1e-07
-11.75 -75 617.9
0 0

0101101
*
Ed
 1e-07 1 1 0
1  25 0 0 7.9
2  78 11 0 0 7.9
2  79 11 5 0 7.9
2  80 13 0 0 7.9
2  81 14 0 0 7.9
0

0101000
+301 0 -300 0 *
Ve
2.00001e-07
-11.85 -75.1000000000466 617.9
0 0

0101101
*
Ed
 1e-07 1 1 0
1  26 0 4.71238898038469 6.28318530717959
2  82 24 0 4.71238898038469 6.28318530717959
2  83 11 0 4.71238898038469 6.28318530717959
0

0101000
+298 0 -300 0 *
Ed
 1e-07 1 1 0
1  14 0 0.100000000046563 3
2  40 11 0 0.100000000046563 3
2  41 3 0 0.100000000046563 3
2  84 9 0 0.100000000046563 3
2  85 22 0 0.100000000046563 3
0

0101000
+298 0 -329 0 *
Ve
1e-07
-3.85 -75 617.9
0 0

0101101
*
Ed
 1e-07 1 1 0
1  25 0 0 8
2  78 11 0 0 8
2  79 11 5 0 8
2  80 13 0 0 8
2  81 14 0 0 8
0

0101000
+295 0 -327 0 *
Ve
1.00000000222045e-07
-3.85 -85 617.9
0 0

0101101
*
Ed
 1e-07 1 1 0
1  27 0 10 60
2  86 11 0 10 60
2  87 25 0 10 60
2  88 26 0 10 60
0

0101000
+293 0 -295 4 *
Ve
1e-07
-3.85 -78 617.9
0 0

0101101
*
Ed
 1e-07 1 1 0
1  27 0 3 10
2  86 11 0 3 10
2  87 25 0 3 10
0

0101000
+291 0 -293 0 *
Ed
 1e-07 1 1 0
1  27 0 0 3
2  86 11 0 0 3
2  87 25 0 0 3
2  89 27 0 0 3
2  90 28 0 0 3
0

0101000
+301 0 -291 0 *
Wi

0101100
-299 0 +297 0 -296 0 -326 0 +294 4 +292 0 +290 0 +289 0 *
Fa
0  1e-07 11 0

0111000
+288 0 *
Ve
1e-07
-11.85 -75 407.9
0 0

0101101
*
Ed
 1e-07 1 1 0
1  15 0 0 3
2  42 12 0 0 3
2  43 3 0 0 3
2  91 9 0 0 3
2  92 22 3 0 3
0

0101000
+286 0 -329 3 *
Ve
1e-07
-3.85 -75 407.9
0 0

0101101
*
Ed
 1e-07 1 1 0
1  28 0 0 8
2  93 12 0 0 8
2  94 12 5 0 8
2  95 13 0 0 8
2  96 14 0 0 8
0

0101000
+286 0 -284 0 *
Ed
 1e-07 1 1 0
1  29 0 0 3
2  97 12 0 0 3
2  98 25 0 0 3
2  99 27 0 0 3
2  100 28 9 0 3
0

0101000
+284 0 -291 9 *
Ve
1e-07
-3.85 -75 407.9
0 0

0101101
*
Ed
 1e-07 1 1 0
1  28 0 0 8
2  93 12 0 0 8
2  94 12 5 0 8
2  95 13 0 0 8
2  96 14 0 0 8
0

0101000
+325 0 -281 0 *
Ve
1.00000000222045e-07
-3.85 -85 407.9
0 0

0101101
*
Ed
 1e-07 1 1 0
1  29 0 3 10
2  97 12 0 3 10
2  98 25 0 3 10
0

0101000
+291 9 -279 0 *
Ed
 1e-07 1 1 0
1  29 0 10 60
2  97 12 0 10 60
2  98 25 0 10 60
2  101 26 0 10 60
0

0101000
+279 0 -281 4 *
Wi

0101100
+285 0 -283 0 +324 0 -282 0 +280 4 -278 0 -277 0 *
Fa
0  1e-07 12 0

0101000
+276 0 *
Ed
 1e-07 1 1 0
1  30 0 0 210
2  102 25 0 0 210
2  103 25 5 0 210
2  104 13 0 0 210
2  105 26 5 0 210
2  106 14 0 0 210
0

0101000
+281 0 -295 0 *
Wi

0101100
+294 4 +274 4 +323 4 +280 4 *
Fa
0  1e-07 13 4

0101000
+273 0 *
Ed
 1e-07 1 1 0
1  31 0 0 8.8
2  107 16 0 0 8.8
2  108 17 0 0 8.8
0

0101000
+320 0 -320 6 *
Ed
 1e-07 1 1 0
1  32 0 0 8.8
2  109 16 0 0 8.8
2  110 18 0 0 8.8
0

0101000
+319 0 -319 6 *
Wi

0101100
+271 0 -318 0 +318 6 -270 0 *
Fa
0  1e-07 16 0

0101000
+269 0 *
Ed
 1e-07 1 1 0
1  33 0 0 8.8
2  111 17 0 0 8.8
2  112 19 0 0 8.8
0

0101000
+317 0 -317 6 *
Wi

0101100
+267 0 -316 0 +316 6 -271 0 *
Fa
0  1e-07 17 0

0101000
+266 0 *
Ed
 1e-07 1 1 0
1  34 0 0 8.8
2  113 20 0 0 8.8
2  114 18 0 0 8.8
0

0101000
+315 0 -315 6 *
Wi

0101100
+270 0 -314 0 +314 6 -264 0 *
Fa
0  1e-07 18 0

0101000
+263 0 *
Ed
 1e-07 1 1 0
1  35 0 0 8.8
2  115 21 0 0 8.8
2  116 19 0 0 8.8
0

0101000
+313 0 -313 6 *
Wi

0101100
+261 0 -312 0 +312 6 -267 0 *
Fa
0  1e-07 19 0

0101000
+260 0 *
Ed
 1e-07 1 1 0
1  36 0 0 8.8
2  117 20 0 0 8.8
2  118 21 0 0 8.8
0

0101000
+311 0 -311 6 *
Wi

0101100
+264 0 -310 0 +310 6 -258 0 *
Fa
0  1e-07 20 0

0101000
+257 0 *
Wi

0101100
+258 0 -309 0 +309 6 -261 0 *
Fa
0  1e-07 21 0

0101000
+255 0 *
Ve
2.00001e-07
-11.9500000000466 -75 617.9
0 0

0101101
*
Ed
 1e-07 1 1 0
1  37 0 3.14159265358979 4.71238898038469
2  119 24 0 3.14159265358979 4.71238898038469
2  120 22 0 3.14159265358979 4.71238898038469
0

0101000
+253 0 -298 0 *
Ed
 1e-07 1 1 0
1  38 0 0 2.89999999995343
2  121 23 0 0 2.89999999995343
2  122 23 8 0 2.89999999995343
2  123 22 0 0 2.89999999995343
2  124 14 0 0 2.89999999995343
0

0101000
+306 0 -253 0 *
Wi

0101100
+252 0 +251 0 +305 0 +296 0 *
Fa
0  1e-07 22 0

0111000
+250 0 *
Ed
 1e-07 1 1 0
1  38 0 0 3
2  121 23 0 0 3
2  122 23 8 0 3
2  123 22 0 0 3
2  125 14 8 0 3
0

0101000
+306 0 -286 8 *
Wi

0101100
+285 0 +248 3 +305 3 *
Fa
0  1e-07 22 3

0101000
+247 0 *
Ve
1e-07
-75 -75 0
0 0

0101101
*
Ed
 1e-07 1 1 0
1  39 0 0 1000
2  126 14 0 0 1000
0

0101000
+245 0 -245 10 *
Ve
1e-07
75 -75 0
0 0

0101101
*
Ed
 1e-07 1 1 0
1  40 0 0 150
2  127 14 0 0 150
2  128 14 11 0 150
0

0101000
+245 0 -243 0 *
Ed
 1e-07 1 1 0
1  41 0 0 1000
2  129 14 0 0 1000
0

0101000
+243 0 -243 10 *
Wi

0101100
+244 0 -242 0 +242 10 -241 0 *
Ve
1e-07
-0.85 -75 617.9
0 0

0101101
*
Ed
 1e-07 1 1 0
1  42 0 0 3
2  130 29 0 0 3
2  131 29 12 0 3
2  132 28 0 0 3
2  133 14 0 0 3
0

0101000
+301 0 -239 0 *
Ed
 1e-07 1 1 0
1  43 0 0 210
2  134 29 0 0 210
2  135 30 0 0 210
2  136 14 0 0 210
0

0101000
+239 0 -239 9 *
Ed
 1e-07 1 1 0
1  42 0 0 3
2  130 29 0 0 3
2  131 29 12 0 3
2  132 28 0 0 3
2  137 14 12 0 3
0

0101000
+284 12 -239 0 *
Ve
1e-07
-11.85 -75 618
0 0

0101101
*
Ed
 1e-07 1 1 0
1  44 0 4.71238898038469 6.28318530717959
2  138 24 0 4.71238898038469 6.28318530717959
2  139 14 0 4.71238898038469 6.28318530717959
0

0101000
+253 0 -235 0 *
Ed
 1e-07 1 1 0
1  45 0 6.28318530717959 7.85398163397448
3  140 141CN 24 0 6.28318530717959 7.85398163397448
2  142 14 0 6.28318530717959 7.85398163397448
0

0101000
+300 0 -235 0 *
Wi

0101100
-238 0 -237 0 +236 9 +283 0 +248 3 +304 0 -251 0 -234 0 +233 0 +299 0 
*
Fa
0  1e-07 14 0

0111000
+240 0 +232 0 *
Ed
 1e-07 1 1 1
2  143 24 0 3.14159265358979 6.28318530717959
0

0101000
+235 0 -235 0 *
Wi

0101100
+233 0 +297 0 +252 0 -234 0 -230 0 *
Fa
0  1e-07 24 0

0111000
+229 0 *
Ve
1e-07
-3.85 -85 636.9
0 0

0101101
*
Ed
 1e-07 1 1 0
1  46 0 0 19
2  144 26 0 0 19
2  145 26 14 0 19
2  146 31 0 0 19
0

0101000
+227 0 -293 0 *
Ve
1e-07
-3.85 -85 363.1
0 0

0101101
*
Ed
 1e-07 1 1 0
1  46 0 229 273.8
2  144 26 0 229 273.8
2  145 26 14 229 273.8
2  146 31 0 229 273.8
0

0101000
+279 0 -225 0 *
Ed
 1e-07 1 1 0
1  47 0 0 500
2  147 26 0 0 500
0

0101000
+225 0 -225 13 *
Ed
 1e-07 1 1 0
1  46 0 0 273.8
2  144 26 0 0 273.8
2  145 26 14 0 273.8
2  146 31 0 0 273.8
0

0101000
+227 0 -225 0 *
Ed
 1e-07 1 1 0
1  48 0 0 500
2  148 26 0 0 500
0

0101000
+227 0 -227 13 *
Wi

0101100
-226 0 -292 0 +274 4 +277 0 -224 0 -223 0 +222 13 +221 0 *
Fa
0  1e-07 26 0

0111000
+220 0 *
Ed
 1e-07 1 1 0
1  46 0 19 229
2  144 26 0 19 229
2  145 26 14 19 229
2  146 31 0 19 229
2  149 25 0 19 229
0

0101000
+293 0 -279 0 *
Ed
 1e-07 1 1 0
1  49 0 0 210
2  150 30 0 0 210
2  151 27 0 0 210
2  152 25 0 0 210
0

0101000
+291 0 -291 9 *
Wi

0101100
-290 0 -218 0 +278 0 +217 0 *
Fa
0  1e-07 25 0

0101000
+216 0 *
Ed
 1e-07 1 1 0
1  50 0 0 4.24264068711928
2  153 30 0 0 4.24264068711928
2  154 30 12 0 4.24264068711928
2  155 28 0 0 4.24264068711928
0

0101000
+239 0 -291 0 *
Wi

0101100
+238 0 -289 0 +214 0 *
Fa
0  1e-07 28 0

0101000
+213 0 *
Wi

0101100
+236 9 -282 0 +214 9 *
Fa
0  1e-07 28 9

0101000
+211 0 *
Wi

0101100
+318 0 +314 0 +310 0 +309 0 +312 0 +316 0 *
Fa
0  1e-07 15 0

0101000
+209 0 *
Ve
1e-07
-75 -66 0
0 0

0101101
*
Ed
 1e-07 1 1 0
1  51 0 0 1000
0

0101000
+207 0 -207 10 *
Ed
 1e-07 1 1 0
1  52 0 0 9
0

0101000
+207 0 -245 0 *
Wi

0101100
+206 0 -244 0 -205 0 +205 10 *
Fa
0  1e-07 32 0

0101000
+204 0 *
Ve
1e-07
2.7 66 0
0 0

0101101
*
Ve
1e-07
75 66 0
0 0

0101101
*
Ed
 1e-07 1 1 0
1  53 0 0 72.3
0

0101000
+202 0 -201 0 *
Ve
1e-07
75 75 0
0 0

0101101
*
Ed
 1e-07 1 1 0
1  54 0 0 9
0

0101000
+201 0 -199 0 *
Ve
1e-07
-75 75 0
0 0

0101101
*
Ed
 1e-07 1 1 0
1  55 0 0 150
0

0101000
+199 0 -197 0 *
Ve
1e-07
-75 66 0
0 0

0101101
*
Ed
 1e-07 1 1 0
1  56 0 0 9
0

0101000
+197 0 -195 0 *
Ve
1e-07
-2.7 66 0
0 0

0101101
*
Ed
 1e-07 1 1 0
1  57 0 0 72.3
0

0101000
+195 0 -193 0 *
Ve
1e-07
-2.7 -66 0
0 0

0101101
*
Ed
 1e-07 1 1 0
1  58 0 0 132
0

0101000
+193 0 -191 0 *
Ed
 1e-07 1 1 0
1  59 0 0 72.3
0

0101000
+191 0 -207 0 *
Ve
1e-07
75 -66 0
0 0

0101101
*
Ed
 1e-07 1 1 0
1  60 0 0 9
0

0101000
+243 0 -188 0 *
Ve
1e-07
2.7 -66 0
0 0

0101101
*
Ed
 1e-07 1 1 0
1  61 0 0 72.3
0

0101000
+188 0 -186 0 *
Ed
 1e-07 1 1 0
1  62 0 0 132
0

0101000
+186 0 -202 0 *
Wi

0101100
+200 0 +198 0 +196 0 +194 0 +192 0 +190 0 +189 0 +205 0 +242 0 +187 0 
+185 0 +184 0 *
Fa
0  1e-07 33 0

0111000
+183 0 *
Ed
 1e-07 1 1 0
1  63 0 0 1000
0

0101000
+188 0 -188 10 *
Wi

0101100
+241 0 -181 0 -187 0 +187 10 *
Fa
0  1e-07 34 0

0101000
+180 0 *
Wi

0101100
+237 0 -214 0 +214 9 -217 0 *
Fa
0  1e-07 30 0

0101000
+178 0 *
Ve
1e-07
3.85 -85 636.9
0 0

0101101
*
Ve
1e-07
70 -85 636.9
0 0

0101101
*
Ed
 1e-07 1 1 0
1  64 0 0 66.15
2  156 31 0 0 66.15
0

0101000
+176 0 -175 0 *
Ve
1e-07
3.85 -85 363.1
0 0

0101101
*
Ed
 1e-07 1 1 0
1  65 0 0 273.8
2  157 31 0 0 273.8
2  158 35 0 0 273.8
2  159 35 14 0 273.8
0

0101000
+173 0 -176 0 *
Ve
1e-07
70 -85 650
0 0

0101101
*
Ed
 1e-07 1 1 0
1  66 0 0 13.1
2  160 31 0 0 13.1
0

0101000
+175 0 -171 0 *
Ve
1e-07
70 -85 363.1
0 0

0101101
*
Ed
 1e-07 1 1 0
1  67 0 0 66.15
2  161 31 0 0 66.15
0

0101000
+169 0 -173 0 *
Ve
1e-07
-70 -85 650
0 0

0101101
*
Ed
 1e-07 1 1 0
1  68 0 0 140
2  162 31 0 0 140
0

0101000
+171 0 -167 0 *
Ve
1e-07
70 -85 350
0 0

0101101
*
Ed
 1e-07 1 1 0
1  69 0 0 13.1
2  163 31 0 0 13.1
0

0101000
+165 0 -169 0 *
Ve
1e-07
-70 -85 636.9
0 0

0101101
*
Ed
 1e-07 1 1 0
1  70 0 0 13.1
2  164 31 0 0 13.1
0

0101000
+167 0 -163 0 *
Ve
1e-07
-70 -85 350
0 0

0101101
*
Ed
 1e-07 1 1 0
1  71 0 0 140
2  165 31 0 0 140
0

0101000
+161 0 -165 0 *
Ed
 1e-07 1 1 0
1  72 0 0 66.15
2  166 31 0 0 66.15
0

0101000
+163 0 -227 0 *
Ve
1e-07
-70 -85 363.1
0 0

0101101
*
Ed
 1e-07 1 1 0
1  73 0 0 13.1
2  167 31 0 0 13.1
0

0101000
+158 0 -161 0 *
Ed
 1e-07 1 1 0
1  74 0 0 66.15
2  168 31 0 0 66.15
0

0101000
+225 0 -158 0 *
Wi

0101100
+174 0 +172 0 +170 0 +168 0 +166 0 +164 0 +162 0 +160 0 +159 0 +157 0 
+226 0 +156 0 +218 0 +224 0 *
Fa
0  1e-07 31 0

0111000
+155 0 *
Ed
 1e-07 1 1 0
1  75 0 0 500
0

0101000
+158 0 -158 13 *
Wi

0101100
+223 0 -153 0 -156 0 +156 13 *
Fa
0  1e-07 36 0

0111000
+152 0 *
Wi

0101100
+174 0 +170 0 +166 0 +162 0 +159 0 +222 0 +156 0 +157 0 +160 0 +164 0 
+168 0 +172 0 *
Fa
0  1e-07 31 0

0101000
+150 0 *
Ed
 1e-07 1 1 0
1  76 0 0 500
0

0101000
+163 0 -163 13 *
Wi

0101100
+148 0 -221 0 -159 0 +159 13 *
Fa
0  1e-07 37 0

0101000
+147 0 *
Ed
 1e-07 1 1 0
1  77 0 0 1000
0

0101000
+191 0 -191 10 *
Wi

0101100
+145 0 -206 0 -189 0 +189 10 *
Fa
0  1e-07 38 0

0111000
+144 0 *
Ed
 1e-07 1 1 0
1  78 0 0 1000
0

0101000
+202 0 -202 10 *
Ed
 1e-07 1 1 0
1  79 0 0 1000
0

0101000
+201 0 -201 10 *
Wi

0101100
+142 0 -141 0 -200 0 +200 10 *
Fa
0  1e-07 39 0

0101000
+140 0 *
Ed
 1e-07 1 1 0
1  80 0 0 1000
0

0101000
+199 0 -199 10 *
Wi

0101100
+141 0 -138 0 -198 0 +198 10 *
Fa
0  1e-07 40 0

0101000
+137 0 *
Ed
 1e-07 1 1 0
1  81 0 0 1000
0

0101000
+197 0 -197 10 *
Wi

0101100
+138 0 -135 0 -196 0 +196 10 *
Fa
0  1e-07 41 0

0101000
+134 0 *
Ed
 1e-07 1 1 0
1  82 0 0 1000
0

0101000
+195 0 -195 10 *
Wi

0101100
+135 0 -132 0 -194 0 +194 10 *
Fa
0  1e-07 42 0

0101000
+131 0 *
Ed
 1e-07 1 1 0
1  83 0 0 1000
0

0101000
+193 0 -193 10 *
Wi

0101100
+132 0 -129 0 -192 0 +192 10 *
Fa
0  1e-07 43 0

0101000
+128 0 *
Wi

0101100
+129 0 -145 0 -190 0 +190 10 *
Fa
0  1e-07 44 0

0101000
+126 0 *
Ed
 1e-07 1 1 0
1  84 0 0 1000
0

0101000
+186 0 -186 10 *
Wi

0101100
+181 0 -124 0 -185 0 +185 10 *
Fa
0  1e-07 45 0

0101000
+123 0 *
Wi

0101100
+124 0 -142 0 -184 0 +184 10 *
Fa
0  1e-07 46 0

0101000
+121 0 *
Ed
 1e-07 1 1 0
1  85 0 0 500
2  169 35 0 0 500
0

0101000
+176 0 -176 13 *
Ed
 1e-07 1 1 0
1  86 0 0 500
0

0101000
+175 0 -175 13 *
Wi

0101100
+119 0 -118 0 -174 0 +174 13 *
Fa
0  1e-07 47 0

0101000
+117 0 *
Ed
 1e-07 1 1 0
1  87 0 0 500
2  170 35 0 0 500
0

0101000
+173 0 -173 13 *
Wi

0101100
+115 0 -172 0 +172 13 -119 0 *
Ve
1e-07
16.65 -120.5 432.9
0 0

0101101
*
Ve
1e-07
16.65 -115.25 441.993266739737
0 0

0101101
*
Ed
 1e-07 1 1 0
1  88 0 0 10.5
2  171 48 0 0 10.5
2  172 48 16 0 10.5
2  173 49 0 0 10.5
2  174 35 16 0 10.5
0

0101000
+113 0 -112 0 *
Ve
1e-07
16.65 -104.75 441.993266739737
0 0

0101101
*
Ed
 1e-07 1 1 0
1  89 0 0 10.5
2  175 49 0 0 10.5
2  176 50 0 0 10.5
2  177 50 16 0 10.5
2  178 35 16 0 10.5
0

0101000
+112 0 -110 0 *
Ve
1e-07
16.65 -99.5 432.9
0 0

0101101
*
Ed
 1e-07 1 1 0
1  90 0 0 10.5
2  179 51 0 0 10.5
2  180 51 16 0 10.5
2  181 49 0 0 10.5
2  182 35 16 0 10.5
0

0101000
+110 0 -108 0 *
Ve
1e-07
16.65 -104.75 423.806733260263
0 0

0101101
*
Ed
 1e-07 1 1 0
1  91 0 0 10.5
2  183 52 0 0 10.5
2  184 52 16 0 10.5
2  185 49 0 0 10.5
2  186 35 16 0 10.5
0

0101000
+108 0 -106 0 *
Ve
1e-07
16.65 -115.25 423.806733260263
0 0

0101101
*
Ed
 1e-07 1 1 0
1  92 0 0 10.5
2  187 49 0 0 10.5
2  188 53 0 0 10.5
2  189 53 16 0 10.5
2  190 35 16 0 10.5
0

0101000
+106 0 -104 0 *
Ed
 1e-07 1 1 0
1  93 0 0 10.5
2  191 54 0 0 10.5
2  192 54 16 0 10.5
2  193 49 0 0 10.5
2  194 35 16 0 10.5
0

0101000
+104 0 -113 0 *
Wi

0101100
-111 15 -109 15 -107 15 -105 15 -103 15 -102 15 *
Ve
1e-07
16.65 -120.5 592.9
0 0

0101101
*
Ve
1e-07
16.65 -115.25 601.993266739737
0 0

0101101
*
Ed
 1e-07 1 1 0
1  94 0 0 10.5
2  195 55 0 0 10.5
2  196 55 18 0 10.5
2  197 56 0 0 10.5
2  198 35 18 0 10.5
0

0101000
+100 0 -99 0 *
Ve
1e-07
16.65 -115.25 583.806733260263
0 0

0101101
*
Ed
 1e-07 1 1 0
1  95 0 0 10.5
2  199 57 0 0 10.5
2  200 57 18 0 10.5
2  201 56 0 0 10.5
2  202 35 18 0 10.5
0

0101000
+97 0 -100 0 *
Ve
1e-07
16.65 -104.75 601.993266739737
0 0

0101101
*
Ed
 1e-07 1 1 0
1  96 0 0 10.5
2  203 56 0 0 10.5
2  204 58 0 0 10.5
2  205 58 18 0 10.5
2  206 35 18 0 10.5
0

0101000
+99 0 -95 0 *
Ve
1e-07
16.65 -104.75 583.806733260263
0 0

0101101
*
Ed
 1e-07 1 1 0
1  97 0 0 10.5
2  207 56 0 0 10.5
2  208 59 0 0 10.5
2  209 59 18 0 10.5
2  210 35 18 0 10.5
0

0101000
+93 0 -97 0 *
Ve
1e-07
16.65 -99.5 592.9
0 0

0101101
*
Ed
 1e-07 1 1 0
1  98 0 0 10.5
2  211 60 0 0 10.5
2  212 60 18 0 10.5
2  213 56 0 0 10.5
2  214 35 18 0 10.5
0

0101000
+95 0 -91 0 *
Ed
 1e-07 1 1 0
1  99 0 0 10.5
2  215 61 0 0 10.5
2  216 61 18 0 10.5
2  217 56 0 0 10.5
2  218 35 18 0 10.5
0

0101000
+91 0 -93 0 *
Wi

0101100
-98 17 -96 17 -94 17 -92 17 -90 17 -89 17 *
Fa
0  1e-07 35 0

0111000
+114 0 +101 0 +88 0 *
Ed
 1e-07 1 1 0
1  100 0 0 500
0

0101000
+171 0 -171 13 *
Wi

0101100
+118 0 -86 0 -170 0 +170 13 *
Fa
0  1e-07 62 0

0101000
+85 0 *
Ed
 1e-07 1 1 0
1  101 0 0 500
0

0101000
+169 0 -169 13 *
Wi

0101100
+83 0 -115 0 -168 0 +168 13 *
Fa
0  1e-07 63 0

0101000
+82 0 *
Ed
 1e-07 1 1 0
1  102 0 0 500
0

0101000
+167 0 -167 13 *
Wi

0101100
+86 0 -80 0 -166 0 +166 13 *
Fa
0  1e-07 64 0

0101000
+79 0 *
Ed
 1e-07 1 1 0
1  103 0 0 500
0

0101000
+165 0 -165 13 *
Wi

0101100
+77 0 -83 0 -164 0 +164 13 *
Fa
0  1e-07 65 0

0101000
+76 0 *
Wi

0101100
+80 0 -148 0 -162 0 +162 13 *
Fa
0  1e-07 66 0

0101000
+74 0 *
Ed
 1e-07 1 1 0
1  104 0 0 500
0

0101000
+161 0 -161 13 *
Wi

0101100
+72 0 -77 0 -160 0 +160 13 *
Fa
0  1e-07 67 0

0111000
+71 0 *
Wi

0101100
+153 0 -72 0 -157 0 +157 13 *
Fa
0  1e-07 68 0

0101000
+69 0 *
Ed
 1e-07 1 1 0
1  105 0 0 12.8
2  219 48 0 0 12.8
2  220 54 0 0 12.8
0

0101000
+113 0 -113 15 *
Ed
 1e-07 1 1 0
1  106 0 0 12.8
2  221 48 0 0 12.8
2  222 50 0 0 12.8
0

0101000
+112 0 -112 15 *
Wi

0101100
+67 0 -111 0 +111 15 -66 0 *
Fa
0  1e-07 48 0

0101000
+65 0 *
Ed
 1e-07 1 1 0
1  107 0 0 12.8
2  223 51 0 0 12.8
2  224 50 0 0 12.8
0

0101000
+110 0 -110 15 *
Wi

0101100
+66 0 -109 0 +109 15 -63 0 *
Fa
0  1e-07 50 0

0101000
+62 0 *
Ed
 1e-07 1 1 0
1  108 0 0 12.8
2  225 51 0 0 12.8
2  226 52 0 0 12.8
0

0101000
+108 0 -108 15 *
Wi

0101100
+63 0 -107 0 +107 15 -60 0 *
Fa
0  1e-07 51 0

0101000
+59 0 *
Ed
 1e-07 1 1 0
1  109 0 0 12.8
2  227 52 0 0 12.8
2  228 53 0 0 12.8
0

0101000
+106 0 -106 15 *
Wi

0101100
+60 0 -105 0 +105 15 -57 0 *
Fa
0  1e-07 52 0

0101000
+56 0 *
Ed
 1e-07 1 1 0
1  110 0 0 12.8
2  229 54 0 0 12.8
2  230 53 0 0 12.8
0

0101000
+104 0 -104 15 *
Wi

0101100
+57 0 -103 0 +103 15 -54 0 *
Fa
0  1e-07 53 0

0101000
+53 0 *
Wi

0101100
+54 0 -102 0 +102 15 -67 0 *
Fa
0  1e-07 54 0

0101000
+51 0 *
Ed
 1e-07 1 1 0
1  111 0 0 12.8
2  231 55 0 0 12.8
2  232 57 0 0 12.8
0

0101000
+100 0 -100 17 *
Ed
 1e-07 1 1 0
1  112 0 0 12.8
2  233 55 0 0 12.8
2  234 58 0 0 12.8
0

0101000
+99 0 -99 17 *
Wi

0101100
+49 0 -98 0 +98 17 -48 0 *
Fa
0  1e-07 55 0

0101000
+47 0 *
Ed
 1e-07 1 1 0
1  113 0 0 12.8
2  235 57 0 0 12.8
2  236 59 0 0 12.8
0

0101000
+97 0 -97 17 *
Wi

0101100
+45 0 -96 0 +96 17 -49 0 *
Fa
0  1e-07 57 0

0101000
+44 0 *
Ed
 1e-07 1 1 0
1  114 0 0 12.8
2  237 60 0 0 12.8
2  238 58 0 0 12.8
0

0101000
+95 0 -95 17 *
Wi

0101100
+48 0 -94 0 +94 17 -42 0 *
Fa
0  1e-07 58 0

0101000
+41 0 *
Ed
 1e-07 1 1 0
1  115 0 0 12.8
2  239 61 0 0 12.8
2  240 59 0 0 12.8
0

0101000
+93 0 -93 17 *
Wi

0101100
+39 0 -92 0 +92 17 -45 0 *
Fa
0  1e-07 59 0

0101000
+38 0 *
Ed
 1e-07 1 1 0
1  116 0 0 12.8
2  241 60 0 0 12.8
2  242 61 0 0 12.8
0

0101000
+91 0 -91 17 *
Wi

0101100
+42 0 -90 0 +90 17 -36 0 *
Fa
0  1e-07 60 0

0101000
+35 0 *
Wi

0101100
+36 0 -89 0 +89 17 -39 0 *
Fa
0  1e-07 61 0

0101000
+33 0 *
Wi

0101100
+111 0 +102 0 +109 0 +103 0 +107 0 +105 0 *
Ve
1e-07
16.65 -110 425.9
0 0

0101101
*
Ve
1.00000113686838e-07
16.65 -110 439.9
0 0

0101101
*
Ed
 1e-07 1 1 0
1  117 0 0 3.14159265358979
2  243 69 0 0 3.14159265358979
2  244 70 0 0 3.14159265358979
2  245 49 0 0 3.14159265358979
2  246 71 0 0 3.14159265358979
0

0101000
+30 0 -29 0 *
Ed
 1e-07 1 1 0
1  117 0 3.14159265358979 6.28318530717959
2  243 69 0 3.14159265358979 6.28318530717959
2  244 70 0 3.14159265358979 6.28318530717959
2  245 49 0 3.14159265358979 6.28318530717959
2  247 71 0 3.14159265358979 6.28318530717959
0

0101000
+29 0 -30 0 *
Wi

0101100
-28 0 -27 0 *
Fa
0  1e-07 49 0

0111000
+31 0 +26 0 *
Wi

0101100
+98 0 +96 0 +94 0 +92 0 +90 0 +89 0 *
Ve
1e-07
16.65 -110 585.9
0 0

0101101
*
Ve
1.00000113686838e-07
16.65 -110 599.9
0 0

0101101
*
Ed
 1e-07 1 1 0
1  118 0 0 3.14159265358979
2  248 72 0 0 3.14159265358979
2  249 73 0 0 3.14159265358979
2  250 56 0 0 3.14159265358979
2  251 74 0 0 3.14159265358979
0

0101000
+23 0 -22 0 *
Ed
 1e-07 1 1 0
1  118 0 3.14159265358979 6.28318530717959
2  248 72 0 3.14159265358979 6.28318530717959
2  249 73 0 3.14159265358979 6.28318530717959
2  250 56 0 3.14159265358979 6.28318530717959
2  252 74 0 3.14159265358979 6.28318530717959
0

0101000
+22 0 -23 0 *
Wi

0101100
-21 0 -20 0 *
Fa
0  1e-07 56 0

0101000
+24 0 +19 0 *
Ve
1e-07
28.15 -110 439.9
0 0

0101101
*
Ed
 1e-07 1 1 0
1  119 0 28.5 40
3  253 254CN 71 0 28.5 40
0

0101000
+29 0 -17 0 *
Ed
 1e-07 1 1 0
1  120 0 0 6.28318530717959
2  255 71 0 0 6.28318530717959
2  256 75 0 0 6.28318530717959
0

0101000
+17 0 -17 0 *
Wi

0101100
-27 0 -28 0 -16 0 -15 0 +16 0 *
Fa
0  1e-07 71 0

0101000
+14 0 *
Ve
1e-07
28.15 -110 599.9
0 0

0101101
*
Ed
 1e-07 1 1 0
1  121 0 28.5 40
3  257 258CN 74 0 28.5 40
0

0101000
+22 0 -12 0 *
Ed
 1e-07 1 1 0
1  122 0 0 6.28318530717959
2  259 74 0 0 6.28318530717959
2  260 76 0 0 6.28318530717959
0

0101000
+12 0 -12 0 *
Wi

0101100
-20 0 -21 0 -11 0 -10 0 +11 0 *
Fa
0  1e-07 74 0

0101000
+9 0 *
Wi

0101100
+15 0 *
Fa
0  1e-07 75 0

0111000
+7 0 *
Wi

0101100
+10 0 *
Fa
0  1e-07 76 0

0101000
+5 0 *
Sh

0101100
-348 1 +344 0 +341 0 +338 0 +335 0 +332 0 +330 0 -307 0 -302 0 -287 0 
-275 0 +272 0 +268 0 +265 0 +262 0 +259 0 +256 0 +254 0 -249 0 +246 0 
-231 0 +228 0 -219 0 -215 0 -212 0 +210 0 -208 6 -203 0 -182 0 +182 10 
-179 0 -177 0 -154 0 -151 0 +149 13 -146 0 -143 0 -139 0 -136 0 -133 0 
-130 0 -127 0 -125 0 -122 0 -120 0 -116 0 -87 0 -84 0 -81 0 -78 0 
-75 0 -73 0 -70 0 -68 0 -64 0 -61 0 -58 0 -55 0 -52 0 -50 0 
-46 0 -43 0 -40 0 -37 0 -34 0 -32 0 -25 0 -18 0 +13 0 +8 0 
+6 0 +4 0 *
So

0100000
+3 0 *
Co

1100000
+2 0 *

+1 0 